<svg id="Layer_1" data-name="Layer 1" xmlns="http://www.w3.org/2000/svg" viewBox="0 0 216 216"><defs><style>.cls-1{fill:none;stroke:#fff;stroke-linecap:round;stroke-miterlimit:10;stroke-width:12px;}</style></defs><title>menuhex-01</title><path d="M14.47,62.41v91.18a14.56,14.56,0,0,0,7.28,12.61l79,45.59a14.56,14.56,0,0,0,14.56,0l79-45.59a14.56,14.56,0,0,0,7.28-12.61V62.41a14.56,14.56,0,0,0-7.28-12.61l-79-45.59a14.56,14.56,0,0,0-14.56,0l-79,45.59A14.56,14.56,0,0,0,14.47,62.41Z"/><line class="cls-1" x1="53.13" y1="78" x2="162.88" y2="78"/><line class="cls-1" x1="53.13" y1="108" x2="162.88" y2="108"/><line class="cls-1" x1="53.13" y1="138" x2="162.88" y2="138"/></svg>